HIERARCHY
ROOT root
{
	OFFSET	0	13.1	24.9
	CHANNELS 6  Xposition Yposition Zposition Xrotation Yrotation Zrotation
	JOINT spine_1
	{
		OFFSET	0	9.99999	0
		CHANNELS 3  Xrotation Yrotation Zrotation
		JOINT spine_2
		{
			OFFSET	0	112	-10
			CHANNELS 3  Xrotation Yrotation Zrotation
			JOINT spine_3
			{
				OFFSET	0	206.5	19.3
				CHANNELS 3  Xrotation Yrotation Zrotation
				JOINT spine_4
				{
					OFFSET	0	110.4	14.6
					CHANNELS 3  Xrotation Yrotation Zrotation
					JOINT neck_1
					{
						OFFSET	0	71.8	-50.3
						CHANNELS 3  Xrotation Yrotation Zrotation
						JOINT neck_2
						{
							OFFSET	0	86.2	-25.8
							CHANNELS 3  Xrotation Yrotation Zrotation
							JOINT head_ee
							{
								OFFSET	0	179.8	-8.7
								CHANNELS 3  Xrotation Yrotation Zrotation
								End Site
								{
									OFFSET	1	0	0
								}
							}
						}
					}
					JOINT left_clavicle
					{
						OFFSET	-43.2	22.4	-70.8
						CHANNELS 3  Xrotation Yrotation Zrotation
						JOINT left_shoulder
						{
							OFFSET	-93.9	-5.79999	48.7
							CHANNELS 3  Xrotation Yrotation Zrotation
							JOINT left_elbow
							{
								OFFSET	-291.4	-30.8	15.2
								CHANNELS 3  Xrotation Yrotation Zrotation
								JOINT left_lowarm_twist
								{
									OFFSET	-110.7	-3.89999	13.6
									CHANNELS 3  Xrotation Yrotation Zrotation
									JOINT left_hand
									{
										OFFSET	-110.7	-3.89999	13.6
										CHANNELS 3  Xrotation Yrotation Zrotation
										JOINT left_ee
										{
											OFFSET	-80.8	-5.10001	12.1
											CHANNELS 3  Xrotation Yrotation Zrotation
											End Site
											{
												OFFSET	1	0	0
											}
										}
									}
								}
							}
						}
					}
					JOINT right_clavicle
					{
						OFFSET	43.2	22.4	-70.8
						CHANNELS 3  Xrotation Yrotation Zrotation
						JOINT right_shoulder
						{
							OFFSET	93.9	-5.79999	48.7
							CHANNELS 3  Xrotation Yrotation Zrotation
							JOINT right_elbow
							{
								OFFSET	291.4	-30.8	15.2
								CHANNELS 3  Xrotation Yrotation Zrotation
								JOINT right_lowarm_twist
								{
									OFFSET	110.7	-3.89999	13.6
									CHANNELS 3  Xrotation Yrotation Zrotation
									JOINT right_hand
									{
										OFFSET	110.7	-3.89999	13.6
										CHANNELS 3  Xrotation Yrotation Zrotation
										JOINT right_ee
										{
											OFFSET	80.8	-5.10001	12.1
											CHANNELS 3  Xrotation Yrotation Zrotation
											End Site
											{
												OFFSET	1	0	0
											}
										}
									}
								}
							}
						}
					}
				}
			}
		}
	}
	JOINT left_hip
	{
		OFFSET	-82.8	-127.5	0.300001
		CHANNELS 3  Xrotation Yrotation Zrotation
		JOINT left_knee
		{
			OFFSET	-28.2	-396.7	2.2
			CHANNELS 3  Xrotation Yrotation Zrotation
			JOINT left_ankle
			{
				OFFSET	-11.7	-411.3	35.4
				CHANNELS 3  Xrotation Yrotation Zrotation
				JOINT left_toes
				{
					OFFSET	0	-60	-88.6
					CHANNELS 3  Xrotation Yrotation Zrotation
					JOINT left_foot_ee
					{
						OFFSET	-22.5	-16.5	-42.2
						CHANNELS 3  Xrotation Yrotation Zrotation
						End Site
						{
							OFFSET	1	0	0
						}
					}
				}
			}
		}
	}
	JOINT right_hip
	{
		OFFSET	82.8	-127.5	0.300001
		CHANNELS 3  Xrotation Yrotation Zrotation
		JOINT right_knee
		{
			OFFSET	28.2	-396.7	2.2
			CHANNELS 3  Xrotation Yrotation Zrotation
			JOINT right_ankle
			{
				OFFSET	11.7	-411.3	35.4
				CHANNELS 3  Xrotation Yrotation Zrotation
				JOINT right_toes
				{
					OFFSET	0	-60	-88.6
					CHANNELS 3  Xrotation Yrotation Zrotation
					JOINT right_foot_ee
					{
						OFFSET	22.5	-16.5	-42.2
						CHANNELS 3  Xrotation Yrotation Zrotation
						End Site
						{
							OFFSET	1	0	0
						}
					}
				}
			}
		}
	}
}
MOTION
Frames: 13
Frame Time: 0.02
2097.25 693.902 -615.682 147.699 -75.1417 153.347 -1.50054 0.340368 0.640714 -1.50037 0.298909 0.661073 -1.49662 0.134732 0.712888 -1.49725 0.245626 0.682665 -10.0963 2.38335 -4.32127 -10.0572 7.40226 -3.61834 -0.0 0.0 -0.0 -1.18988 19.8875 0.569455 -24.9419 -20.0029 70.9848 0.199989 -5.65791 0.00988245 -85.064 -8.45993 5.18301 3.39803 -28.7906 9.46543 -0.0 0.0 -0.0 8.9175 27.8184 -16.2547 5.51596 5.29617 -53.7578 3.07563 56.7092 -1.66012 0.843527 -0.0289562 0.10384 -0.629207 0.786029 4.54619 0.0 0.0 0.0 20.3096 4.54445 -10.835 -5.66824 0.19153 0.848469 -3.28748 5.10328 0.485465 -19.1177 0.0 0.0 -0.0 0.0 -0.0 -22.2482 23.4116 -7.94982 -8.52215 -0.255953 -1.28164 11.5109 -21.9929 1.67869 21.1287 -0.0 -0.0 0.0 0.0 0.0 
2123.72 694.926 -617.794 145.361 -75.5998 150.789 -1.46099 0.336928 0.74429 -1.46073 0.288885 0.764219 -1.4565 0.101255 0.810697 -1.45734 0.228014 0.784534 -11.6478 2.55935 -4.28129 -11.6222 7.62768 -3.4242 -0.0 0.0 -0.0 -0.83989 19.7362 1.06391 -23.8909 -20.5924 69.5513 0.197136 -5.5777 0.00960314 -84.5575 -8.39657 5.19524 3.70948 -28.5882 11.574 -0.0 0.0 -0.0 9.03077 28.2231 -16.459 4.47671 4.45807 -54.3226 2.97901 55.8656 -1.57974 -0.743157 0.0267766 -0.0911281 -0.560098 -0.406193 3.56722 0.0 0.0 0.0 20.3268 5.00343 -9.83137 -7.24212 0.229728 1.08697 -4.55037 5.83003 0.673192 -15.4453 0.0 0.0 -0.0 0.0 -0.0 -23.5806 21.8924 -8.30246 -9.55738 -0.273976 -1.43947 10.9395 -22.0077 1.59848 21.2148 -0.0 -0.0 0.0 0.0 0.0 
2146.06 694.917 -623.68 144.829 -75.6618 150.084 -1.54206 0.246931 0.553359 -1.54192 0.211219 0.56795 -1.53961 0.0709953 0.60178 -1.54008 0.165143 0.583016 -12.5741 2.42241 -3.88258 -12.5598 7.06478 -3.01717 -0.0 0.0 -0.0 -0.810388 19.4444 1.06815 -22.5446 -21.5107 69.7298 0.220493 -6.23362 0.0120064 -84.8855 -8.43761 5.18738 4.05129 -28.4019 13.8877 -0.0 0.0 -0.0 8.94713 28.4146 -16.2517 3.60883 3.39553 -54.323 2.89404 55.0922 -1.50974 -1.83824 0.0683853 -0.224769 -0.516642 -0.0749617 3.41966 0.0 0.0 0.0 20.3229 5.31085 -8.77206 -8.73688 0.259926 1.31435 -5.95632 6.56692 0.883009 -12.5495 0.0 0.0 -0.0 0.0 -0.0 -24.6007 22.7485 -7.00817 -10.0942 -0.282198 -1.52143 14.1209 -19.9315 2.02347 21.7529 -0.0 -0.0 0.0 0.0 0.0 
2169.11 698.23 -629.56 144.96 -75.4272 149.667 -1.60891 0.335972 0.608541 -1.60876 0.296569 0.628686 -1.60523 0.138798 0.681125 -1.60579 0.244625 0.650659 -13.1641 3.65575 -2.12567 -13.196 8.28405 -0.928584 -0.0 0.0 -0.0 -0.30338 19.0994 1.77834 -21.0689 -22.2865 69.0236 0.280509 -7.9111 0.0193964 -84.5712 -8.39829 5.19492 4.34603 -27.5451 16.3147 -0.0 0.0 -0.0 8.9047 29.0539 -16.0825 2.65669 2.68542 -54.7392 2.57891 51.9386 -1.25627 -1.9235 0.0717323 -0.235141 -0.453889 0.0629497 3.05934 0.0 0.0 0.0 19.8665 5.54422 -7.80792 -10.7588 0.291312 1.623 -4.26108 8.11634 0.629343 -8.74202 0.0 0.0 -0.0 0.0 -0.0 -24.683 23.3423 -6.17791 -10.9328 -0.293504 -1.64961 13.4331 -19.9644 1.92993 21.4742 -0.0 -0.0 0.0 0.0 0.0 
2196.28 704.124 -632.436 143.565 -75.7722 148.388 -1.5755 0.246711 0.540938 -1.57536 0.21179 0.55554 -1.57311 0.0741383 0.5899 -1.57355 0.16637 0.570789 -12.8316 3.01246 -1.65831 -12.8519 6.77168 -0.696969 -0.0 0.0 -0.0 0.290272 18.5696 2.60868 -20.0861 -23.1565 67.6444 0.309436 -8.71497 0.0235789 -84.8096 -8.42812 5.18922 4.67374 -26.9521 18.8438 -0.0 0.0 -0.0 8.65259 28.6335 -15.5753 0.934635 2.28798 -56.036 2.42029 50.1619 -1.1329 -2.64219 0.100557 -0.32237 -0.304462 0.212956 2.12444 0.0 0.0 0.0 18.0713 5.77836 -7.41988 -11.7508 0.302725 1.77479 -1.98895 6.95767 0.29249 -5.23325 0.0 0.0 -0.0 0.0 -0.0 -23.7189 23.278 -7.29573 -13.5157 -0.316524 -2.04522 14.0913 -24.1238 2.05775 23.8831 -0.0 -0.0 0.0 0.0 0.0 
2221.38 703.783 -632.799 144.635 -76.4682 149.364 -1.50132 0.195 0.572869 -1.50115 0.158153 0.584116 -1.49933 0.0160336 0.604935 -1.49982 0.111369 0.594811 -11.2572 3.66679 0.505274 -11.2761 6.60348 1.47494 -0.0 0.0 -0.0 0.811303 17.5516 3.30104 -18.662 -24.0145 66.2695 0.381201 -10.6938 0.0356778 -84.614 -8.40364 5.1939 5.02954 -27.1323 21.1216 -0.0 0.0 -0.0 8.52739 28.4314 -15.3224 -0.682581 2.48698 -57.6039 2.23515 47.9066 -0.993073 -4.42012 0.176553 -0.536571 -0.072856 -2.16096 -0.424572 0.0 0.0 0.0 17.3508 6.15259 -6.9013 -12.0209 0.305376 1.81614 2.1827 8.23252 -0.317688 -2.64563 0.0 0.0 -0.0 0.0 -0.0 -22.6795 23.6041 -8.32076 -15.4069 -0.322059 -2.33531 14.5341 -24.687 2.12536 26.0572 -0.0 -0.0 0.0 0.0 0.0 
2245.11 707.509 -639.065 140.555 -75.4145 145.441 -1.86738 0.130207 0.485416 -1.86725 0.0990556 0.492717 -1.86624 -0.0230757 0.502045 -1.86659 0.0565016 0.499389 -12.6664 3.81022 0.946444 -12.6904 6.64137 2.019 -0.0 0.0 -0.0 1.5985 16.9807 4.46947 -17.2651 -24.8567 65.4782 0.406241 -11.3784 0.0404712 -84.9357 -8.44388 5.18616 5.2424 -25.8327 23.4032 -0.0 0.0 -0.0 7.87857 28.469 -13.8893 -1.84354 2.63198 -59.1972 2.15305 46.8387 -0.932658 -6.05455 0.252261 -0.73135 0.0614164 -4.87436 -2.4431 0.0 0.0 0.0 14.5225 6.48277 -6.41595 -15.1368 0.321855 2.29387 6.45776 7.66159 -0.928607 -0.833826 0.0 0.0 -0.0 0.0 -0.0 -20.0478 24.5355 -8.71422 -24.4499 -0.216339 -3.71742 12.5899 -24.1819 1.84864 26.4659 -0.0 -0.0 0.0 0.0 0.0 
2276.54 708.576 -648.746 136.668 -75.6055 140.899 -2.01332 -0.101565 0.462619 -2.01322 -0.130797 0.455219 -2.0142 -0.238094 0.409443 -2.01439 -0.170443 0.441906 -12.4267 2.81723 -1.22494 -12.4437 6.12891 -0.36224 -0.0 0.0 -0.0 2.18523 16.4167 5.34916 -16.3361 -25.8208 65.3279 0.491621 -13.6873 0.0590024 -85.2175 -8.4791 5.17919 5.40061 -24.5835 25.3112 -0.0 0.0 -0.0 7.69792 28.3945 -13.5009 -3.54384 2.46086 -59.8374 1.94715 43.9618 -0.786009 -7.48783 0.323211 -0.900346 0.256322 -7.28703 -4.70516 0.0 0.0 0.0 12.8509 6.89943 -4.69934 -16.5497 0.320762 2.51065 8.16317 9.55672 -1.16792 1.80688 -0.0 -0.0 -0.0 0.0 -0.0 -16.7083 24.258 -8.48595 -34.3458 0.146769 -5.19083 12.7963 -23.7372 1.87339 27.1038 -0.0 -0.0 0.0 0.0 0.0 
2299.73 709.734 -648.552 135.672 -75.0899 140.218 -2.03731 -0.262318 0.30153 -2.03731 -0.280973 0.284227 -2.03876 -0.34201 0.206785 -2.03869 -0.30506 0.258204 -12.4134 2.96039 -0.503074 -12.4327 5.94101 0.370331 -0.0 0.0 -0.0 2.41596 15.5975 5.66918 -15.282 -26.4986 64.6534 0.5577 -15.4439 0.0756223 -85.4234 -8.50481 5.17398 5.57116 -24.5199 26.5593 -0.0 0.0 -0.0 7.5619 28.2002 -13.2241 -4.76514 2.33439 -60.8593 1.83886 42.3267 -0.711945 -8.90445 0.397477 -1.06561 0.38817 -9.22315 -6.33499 0.0 0.0 0.0 10.1603 6.81069 -4.5218 -16.952 0.319473 2.57235 12.3879 10.0895 -1.74728 4.18937 -0.0 -0.0 -0.0 0.0 -0.0 -13.1157 24.3967 -9.01747 -41.7269 0.58027 -6.23831 14.545 -24.6414 2.12635 29.6358 -0.0 -0.0 0.0 0.0 0.0 
2326.72 712.408 -651.88 136.58 -73.8665 140.807 -2.0252 0.0701887 0.366353 -2.02513 0.0467346 0.370077 -2.02474 -0.045201 0.370267 -2.02493 0.0138426 0.372759 -12.265 2.63035 -0.545889 -12.2798 5.34061 0.227006 -0.0 0.0 -0.0 2.86938 14.0926 6.32829 -14.1632 -26.5279 62.9584 0.665079 -18.2351 0.106739 -85.1142 -8.4662 5.18176 5.65243 -23.9083 27.5446 -0.0 0.0 -0.0 7.40344 28.5366 -12.8387 -7.50962 2.25731 -62.7753 1.65629 39.3649 -0.592502 -10.5142 0.486812 -1.25113 0.48892 -12.7597 -8.35498 0.0 0.0 0.0 7.88584 7.40523 -4.10706 -20.1864 0.293376 3.06787 15.2512 7.28239 -2.12554 5.31037 -0.0 -0.0 -0.0 0.0 -0.0 -11.1004 23.6457 -6.94614 -46.4798 0.929588 -6.88042 12.1305 -25.0454 1.79209 29.8932 -0.0 -0.0 0.0 0.0 0.0 
2343.45 712.415 -650.952 136.92 -73.7496 140.768 -1.84844 0.13941 0.264046 -1.84841 0.122325 0.272382 -1.84778 0.0528976 0.293866 -1.84788 0.0986442 0.281824 -12.7143 2.81701 -0.601168 -12.733 5.7334 0.249974 -0.0 0.0 -0.0 3.18875 11.1025 6.73411 -12.817 -27.5988 62.0638 0.696066 -19.0248 0.116638 -85.1233 -8.46734 5.18154 5.82169 -24.155 28.5997 -0.0 0.0 -0.0 6.70916 28.9393 -11.2738 -8.5024 2.2316 -65.2662 1.53129 37.1799 -0.515065 -11.217 0.527445 -1.33134 0.475737 -13.1926 -8.43587 0.0 0.0 0.0 6.47386 6.79093 -3.4936 -20.8092 0.285141 3.16308 17.6537 7.25307 -2.43572 6.5673 -0.0 -0.0 -0.0 0.0 -0.0 -7.20019 24.4258 -7.3822 -50.5777 1.27285 -7.40962 12.7776 -25.4573 1.88788 29.4022 -0.0 -0.0 0.0 0.0 0.0 
2366.91 717.344 -652.794 137.095 -73.2392 141.152 -1.76156 0.231091 0.329177 -1.76152 0.209676 0.343215 -1.76018 0.121138 0.383518 -1.76034 0.180187 0.359574 -12.7218 2.50621 -0.790248 -12.7366 5.26228 -0.0218915 -0.0 0.0 -0.0 3.43176 8.5159 7.04829 -11.6132 -28.1686 61.2394 0.753728 -20.4743 0.136124 -84.9995 -8.45187 5.18459 5.81324 -23.8224 28.7636 -0.0 0.0 -0.0 7.00108 28.5823 -11.9522 -10.7459 1.62024 -65.9203 1.40377 34.8122 -0.440098 -11.924 0.569318 -1.41152 0.563299 -13.7489 -9.20188 0.0 0.0 0.0 5.1358 6.96637 -3.28508 -22.0109 0.26633 3.34651 18.9086 7.91641 -2.59469 7.64692 -0.0 -0.0 -0.0 0.0 -0.0 -3.98603 24.2123 -7.83198 -53.7088 1.56029 -7.79692 13.5781 -25.5911 2.00216 29.4947 -0.0 -0.0 0.0 0.0 0.0 
2377.43 722.419 -658.07 141.297 -73.0414 145.346 -1.68127 0.227262 0.269877 -1.68126 0.209628 0.283791 -1.68016 0.135813 0.325632 -1.68026 0.185536 0.300096 -14.0235 2.55246 0.322029 -14.0395 4.67269 1.10847 -0.0 0.0 -0.0 3.55546 6.18777 7.16999 -9.35628 -28.4955 60.1708 0.836939 -22.5185 0.166621 -84.1988 -8.35163 5.20356 5.75719 -23.9254 28.2882 -0.0 0.0 -0.0 6.14994 29.0625 -10.0396 -11.035 2.20415 -67.5523 1.33118 33.4004 -0.399396 -12.3814 0.596937 -1.46313 0.923893 -14.5083 -11.773 0.0 0.0 0.0 4.45464 6.97015 -2.55091 -19.9981 0.295662 3.03907 18.359 8.04459 -2.52548 6.464 -0.0 -0.0 -0.0 0.0 -0.0 1.395 23.9438 -8.4721 -56.2055 1.80448 -8.0943 12.7148 -25.8728 1.8834 28.6 -0.0 -0.0 0.0 0.0 0.0 
